,
  Hottest scene tracker on the net !!!   http://www.scenetime.com
 
    seed back for speed


 



...................................NFO:.................................................
                                                     
                                                   
                                                         
                                                          
                                                           
                                                          
                                                          
                                                          
                                                           
                                                         
                                                          
                                                        
                                                      
                                     
                                                 
                                                   
                                             
                                              
                                                     
                                                      
                                                      
                                                      
                                                    
                                                     
                                                   
                                                     
                                                     
                                                      
                                                     
                                                      
                                                    
                 ARTiCHOKE                        
                                                
                      
                                                        
                                                      
                                                      
                                               
                                          
                                                   
                                            
                                                    
                                                       
                                                        
                                                      
                                                
                                                        
                                                 
                                              
                                                  
                                                
                                                  
                                        

      
                                
      SPRiNTER proudly presents...     
                                
      
 
Born.to.Battle.1935.DVDRip.XviD-SPRiNTER
http://www.imdb.com/title/tt0026130/

Date: 2011.01

Director : Harry S. Webb

Genre: Western

Plot: Good-natured troublemaker "Cyclone" Tom Saunders is hired by a ranchers' association manager to 
	investigate recent cattle rustling at one of their ranches and to see if a pair of nesters have 
	anything to do with it. After discovering the nesters, pretty Betty Powell and her rickety old father, 
	are incapable of rustling, Tom instead turns his attention to the huge, swaggering bully of a foreman, 
	Nate Lenox.

Cast : 

	Tom Tyler	 ...	'Cyclone' Tom Saunders
	Jean Carmen	 ...	Betty Powell
	Earl Dwire	 ...	George Powell
	Julian Rivero	 ...	Pablo Carranza
	Nelson McDowell	 ...	Lem 'Blinky' Holt
	William Desmond	 ...	John Brownell (as Bill Desmond)
	Richard Alexander	 ...	Nate (as Dick Alexander)
	Charles King	 ...	Jim Larmer
	Ralph Lewis	 ...	Justice Hiram McClump
	Ben Corbett	 ...	Deputy
 

      
                 
      Release notes     
                 
      

	   Enjoy!


      
           
     Greetings    
           
      


NTX aAF FiCO HNR CiNEFiLE AEN HUMANiSM


      
           
      Details     
           
      

Format                           : AVI
Format/Info                      : Audio Video Interleave
File size                        : 698 MiB
Duration                         : 55mn 10s
Overall bit rate                 : 1 768 Kbps
Writing application              : VirtualDubMod 1.5.10.2 (build 2540/release)
Writing library                  : VirtualDubMod build 2540/release

Video
ID                               : 0
Format                           : MPEG-4 Visual
Format profile                   : AdvancedSimple@L5
Format settings, BVOP            : Yes
Format settings, QPel            : No
Format settings, GMC             : No warppoints
Format settings, Matrix          : Default (MPEG)
Muxing mode                      : Packed bitstream
Codec ID                         : XVID
Codec ID/Hint                    : XviD
Duration                         : 55mn 10s
Bit rate                         : 1 630 Kbps
Width                            : 640 pixels
Height                           : 464 pixels
Display aspect ratio             : 1.379
Frame rate                       : 23.976 fps
Resolution                       : 24 bits
Colorimetry                      : 4:2:0
Scan type                        : Progressive
Bits/(Pixel*Frame)               : 0.229
Stream size                      : 643 MiB (92%)
Writing library                  : XviD 1.2.1 (UTC 2008-12-04)

Audio
ID                               : 1
Format                           : MPEG Audio
Format version                   : Version 1
Format profile                   : Layer 3
Codec ID                         : 55
Codec ID/Hint                    : MP3
Duration                         : 55mn 10s
Bit rate mode                    : Variable
Bit rate                         : 126 Kbps
Nominal bit rate                 : 128 Kbps
Channel(s)                       : 1 channel
Sampling rate                    : 48.0 KHz
Resolution                       : 16 bits
Stream size                      : 49.6 MiB (7%)
Alignment                        : Aligned on interleaves
Interleave, duration             : 24 ms (0.58 video frame)
Interleave, preload duration     : 467 ms
Writing library                  : LAME3.90.
Encoding settings                : -m m -V 4 -q 2 -lowpass 17.6 --abr 128